<svg width="34" height="34" viewBox="0 0 34 34" fill="none" xmlns="http://www.w3.org/2000/svg">
<path d="M17.151 27.0379C17.268 26.9827 17.3995 26.9661 17.5266 26.9904C17.6537 27.0146 17.7699 27.0786 17.8583 27.173L19.7896 28.4525L20.9023 27.8088L18.9392 26.4656C18.7564 26.259 18.8677 26.1795 18.9392 26.1318C20.3191 25.5135 21.7366 24.9826 23.1833 24.5423L25.7186 26.1318L26.9822 25.5834L24.6854 24.129C26.1848 23.7157 27.732 23.3713 29.3268 23.0958L28.532 22.0626C26.9796 22.3594 25.5066 22.7011 24.1131 23.0879L24.3992 20.9261L23.1833 21.2838L22.8972 23.4455C21.3306 23.9137 19.7939 24.4763 18.2954 25.1304C18.216 25.1304 18.065 25.1304 18.1127 24.9079L18.3749 22.9607L17.143 23.4217L16.8728 25.2655C16.8754 25.3927 16.8504 25.5189 16.7997 25.6355C16.7489 25.7521 16.6736 25.8563 16.5788 25.9411C15.2208 26.6126 13.9186 27.3913 12.6844 28.2698L13.9322 29.0645C14.9591 28.3232 16.0344 27.6515 17.151 27.0538" fill="#020203"/>
<path d="M17.0477 1.06499C21.2634 1.06499 25.3064 2.73965 28.2873 5.72059C31.2683 8.70153 32.9429 12.7446 32.9429 16.9603C32.9429 17.3735 32.943 17.755 32.8953 18.1921C21.2997 14.5203 13.7414 17.5325 8.69468 25.0351V14.5919L16.8649 5.84946L24.9873 14.5919V15.9906L26.267 16.0383V14.2422L22.9528 10.6816V7.43898H21.7288V9.37028L16.849 4.11688L7.42307 14.1389V27.1491H8.61522C14.5442 18.1445 22.5395 15.625 32.7204 19.5591C32.2249 22.5494 30.8846 25.3356 28.8578 27.5893C26.831 29.843 24.202 31.4702 21.2809 32.2791C18.3597 33.0879 15.2682 33.0447 12.3709 32.1545C9.47347 31.2644 6.89102 29.5644 4.92794 27.2549C2.96486 24.9455 1.70299 22.1229 1.29115 19.12C0.879316 16.117 1.33467 13.0589 2.60351 10.3062C3.87234 7.55356 5.90173 5.22105 8.45247 3.58369C11.0032 1.94634 13.9689 1.07243 17 1.06499M17 34C20.3623 34 23.6491 33.003 26.4447 31.135C29.2403 29.267 31.4192 26.612 32.7059 23.5056C33.9926 20.3993 34.3293 16.9811 33.6733 13.6835C33.0174 10.3858 31.3983 7.35668 29.0208 4.97919C26.6433 2.6017 23.6142 0.982611 20.3165 0.326662C17.0188 -0.329287 13.6007 0.0073538 10.4943 1.29404C7.388 2.58073 4.733 4.75967 2.86501 7.55531C0.99703 10.3509 1.85988e-06 13.6377 1.85988e-06 17C-0.00104271 19.2328 0.437922 21.4438 1.29188 23.5069C2.14584 25.5699 3.39803 27.4443 4.97684 29.0231C6.55564 30.6019 8.43012 31.8541 10.4931 32.7081C12.5561 33.562 14.7672 34.001 17 34Z" fill="#020203"/>
</svg>
